<svg width="32px" height="45px" viewBox="0 0 21 34" version="1.1" xmlns="http://www.w3.org/2000/svg" xmlns:xlink="http://www.w3.org/1999/xlink">
    <title>icon-new-app</title>
    <g id="Symbols" stroke="none" stroke-width="1" fill="none" fill-rule="evenodd" stroke-linecap="round" stroke-linejoin="round">
        <g id="icon-new-app" stroke="#00001F" stroke-width="2">
            <g id="Page-1" transform="translate(0.125000, 0.600000)">
                <path d="M11.1654546,26.7963495 L10.0673505,26.7963495 L8.97061896,26.7963495 C7.96310841,26.7963495 7.31659959,27.867001 7.78741174,28.7592106 L9.53339733,32.0713672 C9.75988131,32.5010005 10.3761923,32.5010005 10.6026762,32.0713672 L12.3486618,28.7592106 C12.8181014,27.867001 12.1715925,26.7963495 11.1654546,26.7963495 Z" id="Stroke-1"></path>
                <path d="M10.2800487,5.01390493 L14.5419876,5.01390493 C13.7719421,3.53695485 12.7287431,2.10804684 11.3286603,0.742279805 C10.6327368,0.0642004952 9.50306221,0.0642004952 8.8071387,0.742279805 C7.40705592,2.10804684 6.36385698,3.53695485 5.59381145,5.01390493" id="Stroke-3"></path>
                <path d="M10.067417,18.210625 C8.43477344,18.210625 7.11033298,16.8861845 7.11033298,15.251875 C7.11033298,13.6175655 8.43477344,12.293125 10.067417,12.293125 C11.7017266,12.293125 13.026167,13.6175655 13.026167,15.251875 C13.026167,16.8861845 11.7017266,18.210625 10.067417,18.210625 Z M10.5617719,8.27596056 L4.77201776,8.27596056 C3.90039759,10.7631664 3.75901669,13.3780269 4.14472577,16.0848537 L1.87165019,18.429306 C0.930025882,19.3997555 0.573142035,20.7970931 0.935516403,22.0997191 L2.44815486,27.5435704 C2.57855473,28.0157552 3.24153511,28.0390899 3.40350547,27.5751409 L5.52696436,21.5218418 C5.66697264,21.9185319 5.81109881,22.3152221 5.96620602,22.7132848 C6.17484581,23.2486106 6.69644527,23.595886 7.26883206,23.595886 L10.067625,23.595886 L12.8664179,23.595886 C13.4388047,23.595886 13.9604042,23.2486106 14.169044,22.7132848 C14.3241512,22.3152221 14.46965,21.9185319 14.6082856,21.5218418 L16.7317445,27.5751409 C16.8937149,28.0390899 17.5566953,28.0157552 17.6870951,27.5435704 L19.1997336,22.0997191 C19.562108,20.7970931 19.2052241,19.3997555 18.2635998,18.429306 L15.9905242,16.0848537 C16.3762333,13.3780269 16.2348524,10.7631664 15.3632322,8.27596056 L13.689996,8.27596056 L10.5617719,8.27596056 Z" id="Stroke-5"></path>
            </g>
        </g>
    </g>
</svg>