<svg width="26px" height="37px" viewBox="0 0 26 37" version="1.1" xmlns="http://www.w3.org/2000/svg" xmlns:xlink="http://www.w3.org/1999/xlink">
<title>icon-api-location</title>
<g id="Symbols" stroke="none" stroke-width="1" fill="none" fill-rule="evenodd">
    <g id="icon-api-location" fill-rule="nonzero" fill="#179DFF">
        <g id="Group">
            <path d="M13.106,17.004 C12.1829863,17.0050631 11.2974713,16.638868 10.6448016,15.9861984 C9.99213198,15.3335287 9.62593693,14.4480137 9.627,13.525 C9.63030281,11.6049711 11.1859711,10.0493028 13.106,10.046 C15.0273986,10.046 16.585,11.6036014 16.585,13.525 C16.585,15.4463986 15.0273986,17.004 13.106,17.004 Z M13.106,12.04 C12.7112286,12.0483627 12.3361419,12.214025 12.0640639,12.5001857 C11.7919859,12.7863465 11.6454469,13.1693091 11.657,13.564 C11.678,14.356 12.314,14.994 13.106,15.013 C13.4994667,15.0025598 13.8725165,14.8356064 14.1424552,14.5491485 C14.4123939,14.2626906 14.5569213,13.880393 14.544,13.487 C14.5302752,12.6970815 13.8958174,12.0586529 13.106,12.04 L13.106,12.04 Z" id="Shape"></path>
            <path d="M13.106,36.313 C10.699,36.313 8.417,35.935 6.672,35.251 C4.651,34.45 3.537,33.272 3.537,31.939 C3.537,31.072 3.998,29.826 6.201,28.817 C6.6959183,28.5959098 7.27695005,28.8080395 7.513,29.296 C7.62367608,29.5347623 7.63473346,29.8077653 7.5437293,30.0546962 C7.45272514,30.3016271 7.2671493,30.5021627 7.028,30.612 C5.987,31.09 5.519,31.617 5.519,31.924 C5.519,32.736 8.194,34.32 13.081,34.32 C15.248,34.32 17.269,33.994 18.769,33.396 C20.069,32.875 20.65,32.287 20.65,31.917 C20.65,31.499 19.838,30.664 17.625,30.066 C17.523106,30.0331716 17.4177246,30.0123638 17.311,30.004 C17.165,30.004 16.956,30.036 16.733,30.358 L16.671,30.42 C15.65,31.698 15.275,32.066 15.048,32.232 C14.482856,32.6344897 13.8105702,32.8593973 13.117,32.878 L13.055,32.875 C13.0353167,32.876356 13.0155462,32.8756859 12.996,32.873 C11.85,32.838 11.241,32.367 11.034,32.168 C9.996,31.341 6.305,26.23 5.884,25.647 C4.03,22.934 2.654,20.433 1.776,18.204 C1.41339957,17.393332 1.14109456,16.5452294 0.964,15.675 C0.747,14.737 0.744,14.196 0.749,14.052 C0.728,13.781 0.727,13.503 0.725,13.238 C0.725,6.421 6.277,0.871 13.089,0.871 C16.3698363,0.862138471 19.5172755,2.16894888 21.827,4.499 C24.1572258,6.80967035 25.4649253,9.95736904 25.458,13.239 C25.458,13.538 25.437,13.861 25.413,14.232 C25.3932627,14.625176 25.343788,15.0162936 25.265,15.402 C25.0759588,16.4581635 24.7526716,17.4858268 24.303,18.46 C23.426,20.609 22.074,23.035 20.288,25.645 C20.268,25.666 19.809,26.323 19.157,27.198 C18.9671987,27.4508544 18.6681394,27.5979693 18.352,27.594 C17.8588624,27.5956119 17.4397306,27.2340415 17.369,26.746 C17.3266677,26.4848885 17.3947659,26.217929 17.557,26.009 C18.125,25.238 18.563,24.642 18.644,24.53 C20.35,22.04 21.631,19.732 22.464,17.681 L22.485,17.625 C22.867,16.813 23.132,15.937 23.297,15.044 C23.3628021,14.7494483 23.4019601,14.449572 23.414,14.148 L23.418,14.086 C23.439,13.774 23.455,13.487 23.455,13.234 C23.455,7.505 18.799,2.841 13.073,2.841 C7.344,2.841 2.689,7.493 2.689,13.215 C2.689,13.453 2.705,13.696 2.716,13.986 L2.778,14.674 C2.799,14.83 2.838,14.996 2.882,15.236 C3.034,16.012 3.278,16.755 3.57,17.424 C4.412,19.567 5.721,21.927 7.487,24.505 C9.438,27.21 11.772,30.255 12.294,30.651 L12.398,30.74 C12.444,30.762 12.638,30.882 13.064,30.886 L13.085,30.891 C13.524,30.86 13.826,30.649 13.832,30.645 C13.869,30.618 14.143,30.383 15.075,29.214 L15.119,29.155 C15.848,28.176 16.951,27.801 18.116,28.141 C20.977,28.912 22.622,30.287 22.622,31.912 C22.622,33.254 21.515,34.433 19.481,35.232 C17.798,35.935 15.516,36.313 13.106,36.313 L13.106,36.313 Z" id="Shape"></path>
        </g>
    </g>
</g>
</svg>