<svg xmlns="http://www.w3.org/2000/svg" xmlns:xlink="http://www.w3.org/1999/xlink" preserveAspectRatio="xMidYMid" width="100" height="98" viewBox="0 0 100 98">
  <defs>
    <style>
      .cls-1 {
        fill: #fff;
        opacity: 0.55;
        fill-rule: evenodd;
      }
    </style>
  </defs>
  <path d="M96.488,43.575 C98.825,46.255 99.994,49.424 99.994,53.083 C99.994,56.401 98.780,59.273 96.364,61.699 C93.941,64.124 91.073,65.337 87.759,65.337 L70.104,65.337 C70.273,65.932 70.444,66.443 70.612,66.868 C70.781,67.293 71.017,67.762 71.314,68.272 C71.610,68.783 71.823,69.166 71.950,69.421 C72.715,70.866 73.300,72.058 73.704,72.993 C74.107,73.930 74.509,75.206 74.914,76.823 C75.319,78.438 75.519,80.056 75.519,81.672 C75.519,82.693 75.508,83.523 75.487,84.161 C75.467,84.799 75.359,85.756 75.169,87.033 C74.977,88.308 74.722,89.372 74.403,90.223 C74.084,91.073 73.575,92.031 72.874,93.094 C72.173,94.159 71.323,95.019 70.324,95.679 C69.324,96.338 68.050,96.891 66.499,97.337 C64.947,97.784 63.195,98.007 61.239,98.007 C60.135,98.007 59.180,97.603 58.371,96.795 C57.522,95.944 56.798,94.881 56.203,93.605 C55.609,92.328 55.194,91.222 54.960,90.286 C54.725,89.350 54.459,88.052 54.163,86.394 C53.780,84.606 53.494,83.320 53.302,82.533 C53.110,81.746 52.737,80.715 52.186,79.439 C51.633,78.162 50.976,77.142 50.210,76.376 C48.808,74.972 46.662,72.419 43.772,68.718 C41.690,65.996 39.544,63.423 37.334,60.998 C35.124,58.572 33.509,57.318 32.490,57.232 C31.428,57.147 30.514,56.711 29.749,55.924 C28.984,55.137 28.601,54.211 28.601,53.148 L28.601,12.245 C28.601,11.139 29.005,10.193 29.813,9.406 C30.620,8.619 31.576,8.204 32.681,8.161 C34.168,8.119 37.525,7.182 42.752,5.353 C46.024,4.247 48.583,3.406 50.432,2.833 C52.281,2.259 54.863,1.642 58.176,0.983 C61.491,0.323 64.550,-0.007 67.354,-0.007 L68.438,-0.007 L73.282,-0.007 L75.577,-0.007 C81.229,0.077 85.414,1.737 88.135,4.969 C90.598,7.905 91.639,11.755 91.258,16.518 C92.914,18.093 94.063,20.092 94.699,22.516 C95.421,25.111 95.421,27.600 94.699,29.981 C96.654,32.577 97.568,35.491 97.440,38.724 C97.443,40.087 97.126,41.702 96.488,43.575 ZM20.444,57.167 L2.087,57.167 C0.981,57.167 0.025,56.763 -0.782,55.955 C-1.590,55.146 -1.994,54.189 -1.994,53.083 L-1.994,12.243 C-1.994,11.138 -1.590,10.181 -0.782,9.372 C0.026,8.564 0.982,8.160 2.087,8.160 L20.444,8.160 C21.548,8.160 22.504,8.564 23.312,9.372 C24.119,10.181 24.523,11.138 24.523,12.243 L24.523,53.083 C24.523,54.189 24.119,55.146 23.312,55.955 C22.504,56.763 21.548,57.167 20.444,57.167 ZM13.113,17.508 C12.306,16.721 11.350,16.328 10.245,16.328 C9.097,16.328 8.130,16.721 7.345,17.508 C6.558,18.295 6.166,19.263 6.166,20.411 C6.166,21.517 6.558,22.475 7.345,23.283 C8.130,24.091 9.097,24.496 10.245,24.496 C11.350,24.496 12.306,24.091 13.113,23.283 C13.920,22.475 14.324,21.517 14.324,20.411 C14.324,19.263 13.921,18.295 13.113,17.508 Z" class="cls-1"/>
</svg>
