<?xml version="1.0" encoding="UTF-8"?>
<svg width="40px" height="8px" viewBox="0 0 42 11" version="1.1" xmlns="http://www.w3.org/2000/svg" xmlns:xlink="http://www.w3.org/1999/xlink">
    <!-- Generator: Sketch 46.2 (44496) - http://www.bohemiancoding.com/sketch -->
    <title>icon-gcash</title>
    <desc>Created with Sketch.</desc>
    <defs></defs>
    <g id="Symbols" stroke="none" stroke-width="1" fill="none" fill-rule="evenodd">
        <g id="icon-gcash" fill="#FFFFFF">
            <g id="Page-1">
                <path d="M8.8512,9.60704892 C7.6428,10.1254489 6.4476,10.4278489 5.196,10.4278489 C2.13,10.4278489 0,8.35544892 0,5.41904892 C0,2.48264892 2.0868,0.411448923 5.0796,0.411448923 C6.2604,0.411448923 7.47,0.755848923 8.664,1.40384892 L7.9584,2.68424892 C7.0092,2.18144892 6.1596,1.87904892 5.2968,1.87904892 C3.2676,1.87904892 1.8708,3.34664892 1.8708,5.41904892 C1.8708,7.52144892 3.2964,8.96024892 5.34,8.96024892 C5.958,8.96024892 6.5484,8.83064892 7.0812,8.60024892 L7.0812,6.32624892 L4.908,6.32624892 L4.908,4.91624892 L8.8512,4.91624892 L8.8512,9.60704892 Z" id="Fill-1"></path>
                <path d="M15.23256,0.411328923 C16.39896,0.411328923 17.60736,0.785728923 18.70176,1.50452892 L17.92416,2.78612892 C17.13216,2.23772892 16.31136,1.93652892 15.47736,1.93652892 C13.54896,1.93652892 12.20976,3.36092892 12.20976,5.41892892 C12.20976,7.47812892 13.54896,8.90252892 15.47736,8.90252892 C16.31136,8.90252892 17.13216,8.60012892 17.92416,8.05292892 L18.70176,9.33452892 C17.60736,10.0533289 16.39896,10.4277289 15.23256,10.4277289 C12.29616,10.4277289 10.26696,8.35532892 10.26696,5.41892892 C10.26696,2.46932892 12.29616,0.411328923 15.23256,0.411328923" id="Fill-4"></path>
                <path d="M22.5774,9.13244892 C23.5554,9.13244892 24.2034,8.45684892 24.2034,7.49204892 L24.2034,7.07444892 C23.829,6.97364892 23.4414,6.93044892 23.0526,6.93044892 C22.0026,6.93044892 21.3534,7.37684892 21.3534,8.11004892 C21.3534,8.68604892 21.8862,9.13244892 22.5774,9.13244892 M22.8366,5.86484892 C23.2686,5.86484892 23.7438,5.90804892 24.2034,6.00884892 L24.2034,5.63564892 C24.2034,4.91564892 23.6274,4.39844892 22.7502,4.39844892 C22.0302,4.39844892 21.2526,4.57004892 20.433,4.90124892 L19.9722,3.61964892 C21.0234,3.21644892 22.0158,3.03044892 22.9662,3.03044892 C24.7506,3.03044892 25.9302,4.09604892 25.9302,5.66324892 L25.9302,8.52764892 C25.9302,8.83004892 26.1186,9.03164892 26.4198,9.03164892 C26.5638,9.03164892 26.7222,9.00404892 26.7798,8.98844892 L26.9094,10.3264489 C26.607,10.3852489 26.277,10.4272489 25.9302,10.4272489 C25.2114,10.4272489 24.6642,10.0672489 24.4194,9.47804892 C23.8158,10.0828489 22.9662,10.4272489 22.1022,10.4272489 C20.6346,10.4272489 19.5834,9.50684892 19.5834,8.21084892 C19.5834,6.72884892 20.793,5.86484892 22.8366,5.86484892" id="Fill-7"></path>
                <path d="M30.3246,3.03044892 C31.1454,3.03044892 32.0226,3.20324892 32.9154,3.51884892 L32.5122,4.84364892 C31.8066,4.57004892 31.101,4.39844892 30.4686,4.39844892 C29.8062,4.39844892 29.3742,4.69964892 29.3742,5.15924892 C29.3742,6.44084892 33.1458,5.50604892 33.1458,8.24084892 C33.1458,9.52124892 31.9938,10.4272489 30.3246,10.4272489 C29.4606,10.4272489 28.5114,10.2412489 27.5178,9.86564892 L27.9066,8.55644892 C28.7274,8.88764892 29.5038,9.06044892 30.1806,9.06044892 C30.8862,9.06044892 31.3314,8.72924892 31.3314,8.24084892 C31.3314,6.90164892 27.5754,7.83764892 27.5754,5.15924892 C27.5754,3.92204892 28.6986,3.03044892 30.3246,3.03044892" id="Fill-9"></path>
                <path d="M34.60308,0.123088923 L36.44508,0.123088923 L36.44508,4.10948892 C36.94908,3.41828892 37.78308,3.03068892 38.73348,3.03068892 C40.34508,3.03068892 41.48148,4.13828892 41.48148,5.72108892 L41.48148,10.2546889 L39.63948,10.2546889 L39.63948,6.00908892 C39.63948,5.14628892 39.02148,4.54148892 38.17188,4.54148892 C37.17828,4.54148892 36.44508,5.29028892 36.44508,6.36908892 L36.44508,10.2546889 L34.60308,10.2546889 L34.60308,0.123088923 Z" id="Fill-11"></path>
            </g>
        </g>
    </g>
</svg>