<svg width="15px" height="17px" viewBox="0 0 15 17" version="1.1" xmlns="http://www.w3.org/2000/svg" xmlns:xlink="http://www.w3.org/1999/xlink">
<title>icon-user</title>
<defs></defs>
<g id="Symbols" stroke="none" stroke-width="1" fill="none" fill-rule="evenodd" stroke-linecap="round" stroke-linejoin="round">
    <g id="icon-user" stroke="#FFFFFF">
        <path d="M11.6375983,7.1781936 C11.2365976,8.82798263 10.2812723,10.3800526 9.05575411,10.9549318 L9.06754825,11.0879961 C9.13080772,11.8458387 9.57147963,12.5277931 10.2491065,12.9113924 L14.5518227,14.3116859 C14.8295211,14.4686602 15,14.7576591 15,15.0695285 L15,16.1226075 C15,16.6070446 14.5947105,17 14.0950679,17 L11.768406,17 L8.94531808,17 L1.00464618,17 C0.449249464,17 0,16.5633829 0,16.0248884 L0,15.1121507 C0,14.7732526 0.181200858,14.457225 0.480343102,14.280499 L4.53431022,12.9176298 C5.18406004,12.5329909 5.60757684,11.8718278 5.67512509,11.1358161 L5.6922802,10.9549318 C4.0582559,10.1887727 2.9045747,7.68550113 2.9045747,5.52840457 C2.9045747,2.68415581 3.9413867,-1.70530257e-13 7.37348106,-1.70530257e-13 C9.94781987,-1.70530257e-13 11.1754825,1.50944781 11.6279485,3.46486883" id="Page-1"></path>
    </g>
</g>
</svg>