<svg xmlns="http://www.w3.org/2000/svg" xmlns:xlink="http://www.w3.org/1999/xlink" preserveAspectRatio="xMidYMid" width="100" height="98" viewBox="0 0 100 98">
  <defs>
    <style>
      .cls-1 {
        fill: #fff;
        opacity: 0.55;
        fill-rule: evenodd;
      }
    </style>
  </defs>
  <path d="M96.488,54.425 C97.126,56.298 97.443,57.913 97.440,59.276 C97.568,62.509 96.654,65.423 94.699,68.019 C95.421,70.400 95.421,72.889 94.699,75.484 C94.063,77.908 92.914,79.907 91.258,81.482 C91.639,86.245 90.598,90.095 88.135,93.031 C85.414,96.263 81.229,97.923 75.577,98.007 L73.282,98.007 L68.438,98.007 L67.354,98.007 C64.550,98.007 61.491,97.677 58.176,97.017 C54.863,96.358 52.281,95.741 50.432,95.167 C48.583,94.594 46.024,93.753 42.752,92.647 C37.525,90.818 34.168,89.881 32.681,89.839 C31.576,89.796 30.620,89.381 29.813,88.594 C29.005,87.807 28.601,86.861 28.601,85.755 L28.601,44.852 C28.601,43.789 28.984,42.863 29.749,42.076 C30.514,41.289 31.428,40.853 32.490,40.768 C33.509,40.682 35.124,39.428 37.334,37.002 C39.544,34.577 41.690,32.004 43.772,29.282 C46.662,25.581 48.808,23.028 50.210,21.624 C50.976,20.858 51.633,19.838 52.186,18.561 C52.737,17.285 53.110,16.254 53.302,15.467 C53.494,14.680 53.780,13.394 54.163,11.606 C54.459,9.948 54.725,8.650 54.960,7.714 C55.194,6.778 55.609,5.672 56.203,4.395 C56.798,3.119 57.522,2.056 58.371,1.205 C59.180,0.397 60.135,-0.007 61.239,-0.007 C63.195,-0.007 64.947,0.216 66.499,0.663 C68.050,1.109 69.324,1.662 70.324,2.321 C71.323,2.981 72.173,3.841 72.874,4.906 C73.575,5.969 74.084,6.927 74.403,7.777 C74.722,8.628 74.977,9.692 75.169,10.967 C75.359,12.244 75.467,13.201 75.487,13.839 C75.508,14.477 75.519,15.307 75.519,16.328 C75.519,17.944 75.319,19.562 74.914,21.177 C74.509,22.794 74.107,24.070 73.704,25.007 C73.300,25.942 72.715,27.134 71.950,28.579 C71.823,28.834 71.610,29.217 71.314,29.728 C71.017,30.238 70.781,30.707 70.612,31.132 C70.444,31.557 70.273,32.068 70.104,32.663 L87.759,32.663 C91.073,32.663 93.941,33.876 96.364,36.301 C98.780,38.727 99.994,41.599 99.994,44.917 C99.994,48.576 98.825,51.745 96.488,54.425 ZM20.444,89.840 L2.087,89.840 C0.982,89.840 0.026,89.436 -0.782,88.628 C-1.590,87.819 -1.994,86.862 -1.994,85.757 L-1.994,44.917 C-1.994,43.811 -1.590,42.854 -0.782,42.045 C0.025,41.237 0.981,40.833 2.087,40.833 L20.444,40.833 C21.548,40.833 22.504,41.237 23.312,42.045 C24.119,42.854 24.523,43.811 24.523,44.917 L24.523,85.757 C24.523,86.862 24.119,87.819 23.312,88.628 C22.504,89.436 21.548,89.840 20.444,89.840 ZM13.113,74.717 C12.306,73.909 11.350,73.504 10.245,73.504 C9.097,73.504 8.130,73.909 7.345,74.717 C6.558,75.525 6.166,76.483 6.166,77.589 C6.166,78.737 6.558,79.705 7.345,80.492 C8.130,81.279 9.097,81.672 10.245,81.672 C11.350,81.672 12.306,81.279 13.113,80.492 C13.921,79.705 14.324,78.737 14.324,77.589 C14.324,76.483 13.920,75.525 13.113,74.717 Z" class="cls-1"/>
</svg>
