<svg width="20px" height="26px" viewBox="0 0 28 29" version="1.1" xmlns="http://www.w3.org/2000/svg" xmlns:xlink="http://www.w3.org/1999/xlink">
<title>icon-rocket</title>
<g id="Symbols" stroke="none" stroke-width="1" fill="none" fill-rule="evenodd">
    <g id="icon-rocket" fill="#FFFFFF">
        <g id="Page-1">
            <path d="M8.56277778,21.3221556 L7.68388889,20.4432667 L6.80344444,19.5628222 C5.99611111,18.7570444 4.621,19.0961556 4.28344444,20.1881556 L3.02655556,24.2403778 C2.86477778,24.7677111 3.35788889,25.2608222 3.88522222,25.0990444 L7.939,23.8421556 C9.02944444,23.5046 9.37011111,22.1294889 8.56277778,21.3221556" id="Fill-1"></path>
            <g id="Group-5" transform="translate(18.666667, 0.125911)">
                <path d="M8.90197778,2.45155556 C8.88797778,1.35022222 7.98264444,0.444888889 6.88286667,0.430888889 C4.66464444,0.404444444 2.68286667,0.712444444 0.883088889,1.27866667 L8.0542,8.44977778 C8.62042222,6.65 8.92997778,4.66822222 8.90197778,2.45155556" id="Fill-3"></path>
            </g>
            <g id="Group-8" transform="translate(0.000000, 1.681467)">
                <path d="M16.1040444,10.3402444 C15.0260444,9.26224444 15.0260444,7.5138 16.1040444,6.43424444 C17.1820444,5.35624444 18.9304889,5.35624444 20.0100444,6.43424444 C21.0896,7.5138 21.0896,9.26224444 20.0100444,10.3402444 C18.9304889,11.4182444 17.1820444,11.4182444 16.1040444,10.3402444 M20.1111556,15.8251333 C22.5891556,13.9662444 24.5709333,11.7573556 25.8651556,9.0678 L17.3764889,0.579133333 C14.6869333,1.87335556 12.4780444,3.85513333 10.6176,6.33468889 L6.91848889,6.39068889 C5.38626667,6.41402222 3.9816,7.2478 3.22715556,8.58091111 L0.0756,14.1560222 C-0.196622222,14.6398 0.315155556,15.1873556 0.816044444,14.9478 L7.36804444,11.7978 C7.16271111,12.2271333 6.96204444,12.6611333 6.7676,13.1044667 C6.50471111,13.6986889 6.64471111,14.3955778 7.1036,14.8560222 L9.34671111,17.0991333 L11.5882667,19.3406889 C12.0471556,19.7995778 12.7440444,19.9395778 13.3398222,19.6782444 C13.7831556,19.4822444 14.2171556,19.2815778 14.6464889,19.0746889 L11.4980444,25.6266889 C11.2553778,26.1275778 11.8044889,26.6409111 12.2882667,26.3686889 L17.8633778,23.2171333 C19.1964889,22.4626889 20.0302667,21.0595778 20.0551556,19.5258 L20.1111556,15.8251333 Z" id="Fill-6"></path>
            </g>
        </g>
    </g>
</g>
</svg>