<svg width="22px" height="36px" viewBox="0 0 22 36" version="1.1" xmlns="http://www.w3.org/2000/svg" xmlns:xlink="http://www.w3.org/1999/xlink">
<title>icon-api-voice</title>
<g id="Symbols" stroke="none" stroke-width="1" fill="none" fill-rule="evenodd">
    <g id="icon-api-voice" fill-rule="nonzero" fill="#179DFF">
        <path d="M11.1591801,35.404 C9.11718009,35.404 7.13818009,35.126 5.74818009,34.633 L5.67118009,34.612 C4.67318009,34.251 3.99718009,33.796 3.63818009,33.254 L3.59518009,33.192 C3.52195306,33.0661427 3.46100557,32.9335317 3.41318009,32.796 C3.36345051,32.6429369 3.33485306,32.4838005 3.32818009,32.323 L3.32618009,32.261 L3.32818009,32.181 C3.33318009,32.119 3.34118009,32.053 3.34518009,31.993 C3.36618009,31.878 3.38618009,31.801 3.40718009,31.722 C3.44118009,31.625 3.46518009,31.574 3.49418009,31.501 L3.51518009,31.448 C3.53618009,31.402 3.57718009,31.339 3.61918009,31.273 C4.01518009,30.681 4.67218009,30.252 5.64018009,29.889 L5.78618009,29.836 C6.15630189,29.721996 6.53095113,29.6232461 6.90918009,29.54 L6.97918009,29.524 C7.11818009,29.497 7.20818009,29.465 7.29918009,29.451 C7.56618009,29.389 7.77918009,29.335 8.32218009,29.263 L8.32218009,27.953 C3.51197946,26.8484045 0.0779082454,22.6018481 0.00418009376,17.667 L0.000180093759,17.521 C-0.00124938151,17.4672242 0.00583823611,17.4135608 0.0211800938,17.362 C0.154037482,16.0012961 1.29501806,14.9618416 2.66218009,14.956 C3.99818009,14.956 5.12218009,15.944 5.29218009,17.268 C5.31050039,17.341907 5.31923875,17.4178635 5.31818009,17.494 C5.31818009,20.47 7.75418009,22.89 10.7441801,22.89 C12.0625237,22.8900253 13.3361892,22.4121787 14.3291801,21.545 L14.7451801,21.135 C14.7861801,21.092 14.8271801,21.047 14.8621801,21.002 L14.9241801,20.927 L15.2781801,20.462 L15.3821801,20.286 L15.5421801,20.006 C15.5971801,19.902 15.6261801,19.837 15.6601801,19.776 L15.7121801,19.663 C16.0120131,18.98309 16.1666431,18.2480863 16.1661801,17.505 L16.1611801,17.373 L16.1291801,14.563 L13.5791801,14.563 C12.3292446,14.5526717 11.3185084,13.5419355 11.3081801,12.292 C11.3163933,11.0421542 12.3293169,10.0319067 13.5791801,10.027 L16.1621801,10.027 C16.1621801,9.548 16.1641801,8.107 16.1681801,7.791 L16.1671801,7.791 L16.1671801,7.4 C16.1671801,4.421 13.7321801,2.004 10.7401801,2.004 C7.75018009,2.004 5.31018009,4.424 5.31018009,7.4 L5.31018009,13.531 C5.28904264,14.0812811 4.83178238,14.5136565 4.28118009,14.504 C3.75080864,14.4851345 3.32430569,14.0612455 3.30218009,13.531 L3.30218009,7.398 C3.30218009,3.318 6.63618009,0 10.7401801,0 C14.8391801,0 18.1741801,3.318 18.1741801,7.398 L18.1741801,7.836 C18.1741801,9.949 18.1231801,10.543 18.0741801,10.756 L18.0801801,10.758 C17.8341432,11.5266376 17.1182293,12.0470815 16.3111801,12.044 L13.5761801,12.044 C13.5086625,12.0428909 13.443612,12.0693616 13.3960525,12.1172986 C13.3484929,12.1652355 13.3225373,12.2304932 13.3241801,12.298 L13.3241801,12.3 C13.3241801,12.446 13.4301801,12.556 13.5761801,12.556 L16.4191801,12.556 C17.3651801,12.556 18.1291801,13.327 18.1291801,14.26 L18.1721801,17.49 C18.1721801,18.462 17.9841801,19.408 17.6101801,20.302 L17.5541801,20.418 L17.4681801,20.614 L17.3421801,20.87 C17.3211801,20.925 17.2881801,20.975 17.2571801,21.032 C17.2361801,21.083 17.2041801,21.131 17.1731801,21.178 C17.1071801,21.309 17.0271801,21.427 16.9481801,21.547 L16.6361801,21.985 L16.4551801,22.213 L16.4061801,22.266 C16.3231801,22.37 16.2601801,22.432 16.2051801,22.495 L16.1141801,22.595 C16.0470982,22.6649008 15.9787536,22.7335787 15.9091801,22.801 L15.8311801,22.872 C15.7901801,22.91 15.7461801,22.952 15.6981801,22.994 L15.4871801,23.178 C14.1455091,24.2863876 12.4594686,24.8924853 10.7191801,24.892 C6.7205666,24.9111389 3.43101909,21.7482828 3.29318009,17.752 C3.28551143,17.7036881 3.28116789,17.6549068 3.28018009,17.606 C3.28124424,17.4338735 3.21388612,17.2683745 3.09292445,17.1459125 C2.97196279,17.0234506 2.80730662,16.9540576 2.63518009,16.953 C2.46413913,16.9513989 2.29955262,17.0182252 2.17804098,17.13861 C2.05652934,17.2589948 1.9881726,17.4229515 1.98818009,17.594 C2.00918009,21.842 5.20118009,25.513 9.40718009,26.134 L9.53518009,26.155 C9.53918009,26.155 9.55618009,26.16 9.58518009,26.171 L9.68218009,26.2 C9.70986605,26.2079461 9.73617121,26.2200869 9.76018009,26.236 L10.0121801,26.414 C10.0311801,26.422 10.0431801,26.447 10.0741801,26.476 L10.1361801,26.58 L10.1361801,26.563 C10.1361801,26.563 10.1571801,26.581 10.1571801,26.589 L10.2191801,26.703 C10.2401801,26.729 10.2401801,26.765 10.2491801,26.792 L10.2771801,26.896 C10.2881801,26.94 10.2931801,26.958 10.2961801,26.993 L10.3171801,27.131 L10.3061801,29.694 C10.2441801,30.411 9.70318009,31.17 8.66018009,31.254 C8.36418009,31.287 8.07018009,31.341 7.78118009,31.411 L7.70118009,31.432 C7.59518009,31.456 7.47218009,31.494 7.30518009,31.531 L7.19718009,31.552 C6.92024012,31.6141053 6.64628696,31.6888501 6.37618009,31.776 C6.33618009,31.797 6.29618009,31.805 6.25418009,31.825 C5.77518009,32.009 5.52918009,32.169 5.40218009,32.263 C5.52818009,32.367 5.78518009,32.534 6.25618009,32.706 L6.28918009,32.718 C7.51018009,33.158 9.26818009,33.406 11.1331801,33.406 C12.4371801,33.406 13.6911801,33.29 14.7421801,33.053 L14.8881801,33.026 L14.9031801,33.026 C15.7571801,32.836 16.4651801,32.559 16.8291801,32.296 L16.8721801,32.265 L16.8451801,32.244 C16.4491801,31.948 15.7081801,31.676 14.8001801,31.473 C14.3546855,31.3696901 13.9020909,31.2998288 13.4461801,31.264 L13.3821801,31.257 C12.4111801,31.18 11.7861801,30.536 11.7521801,29.569 L11.7491801,29.56 L11.7491801,27.171 C11.7491801,27.142 11.7521801,27.109 11.7531801,27.086 C11.7186752,26.5882186 12.0553274,26.1407695 12.5431801,26.036 C16.5221801,25.182 19.4021801,21.598 19.4021801,17.519 L19.4021801,16.12 C19.4114424,15.8528646 19.5279026,15.6007169 19.7252764,15.4204651 C19.9226503,15.2402133 20.1843026,15.1470495 20.4511801,15.162 C20.9711399,15.183416 21.3877641,15.6000402 21.4091801,16.12 L21.4091801,17.519 C21.4091801,22.29 18.2861801,26.445 13.7591801,27.79 L13.7591801,29.269 C14.2212181,29.308101 14.6795678,29.3826539 15.1301801,29.492 C16.3701801,29.757 17.3301801,30.123 17.9601801,30.556 L18.0361801,30.617 L18.2061801,30.755 C18.3951801,30.924 18.5381801,31.074 18.6521801,31.237 L18.6881801,31.299 C18.7091801,31.343 18.7431801,31.388 18.7621801,31.435 C18.7831801,31.462 18.7971801,31.504 18.8241801,31.542 C18.8441801,31.593 18.8641801,31.636 18.8761801,31.679 L18.9281801,31.832 C18.9491801,31.887 18.9491801,31.923 18.9541801,31.956 C18.9662875,32.0003961 18.9733323,32.0460197 18.9751801,32.092 L18.9941801,32.207 L18.9901801,32.353 L18.9681801,32.56 C18.9583815,32.5994595 18.9513643,32.639558 18.9471801,32.68 C18.9261801,32.742 18.9151801,32.791 18.8851801,32.849 C18.8721801,32.881 18.8641801,32.931 18.8351801,32.978 C18.8182438,33.0143677 18.7998966,33.0500614 18.7801801,33.085 C18.7581801,33.136 18.7251801,33.179 18.7041801,33.222 L18.6421801,33.311 C18.5300215,33.4737836 18.3968721,33.6210548 18.2461801,33.749 C18.1721801,33.811 18.1231801,33.853 18.0651801,33.895 L18.0091801,33.93 C17.3871801,34.387 16.4051801,34.77 15.1951801,35.034 L15.0431801,35.061 L15.0291801,35.06 C13.7525356,35.2936689 12.4570241,35.4088255 11.1591801,35.404 L11.1591801,35.404 Z" id="Shape"></path>
    </g>
</g>
</svg>