<svg width="45px" height="38px" viewBox="0 0 60 53" version="1.1" xmlns="http://www.w3.org/2000/svg" xmlns:xlink="http://www.w3.org/1999/xlink">
<title>icon-wallet</title>
<g id="Symbols" stroke="none" stroke-width="1" fill="none" fill-rule="evenodd">
  <g id="icon-wallet" fill-rule="nonzero" fill="#00001F">
      <g id="Group">
          <path d="M7.88833254,53 C4.75985342,53 2.95225041,51.785616 1.98718845,50.7561382 C0.0637780078,48.7088433 0.0486726901,46.0818425 0.0721698509,45.4954733 L0,7.00832911 L4.3973258,7 L4.46949565,45.610415 L4.46446054,45.6820453 C4.46446054,45.6820453 4.42585807,46.9680597 5.21469132,47.7993047 C5.75512602,48.357355 6.65305323,48.6488738 7.88833254,48.6488738 L7.90343786,48.6488738 L51.4386416,48.5639169 C54.9162214,48.5589194 55.5002937,46.1684653 55.5976391,45.3355544 L55.5405746,17.3997248 L55.5456097,17.3264286 L55.5456097,17.3297603 C55.5456097,17.3297603 55.5858905,16.0420801 54.7970573,15.2125009 C54.2566226,14.6577823 53.3586953,14.3645977 52.1267728,14.3645977 L52.1099891,14.3645977 L7.83965985,14.464547 L7.82958964,10.1034258 L52.1032756,10.0051423 C55.2267196,9.97682335 57.0611765,11.2195263 58.0279169,12.2606649 C59.9496489,14.296299 59.9630759,16.9199681 59.9412571,17.5229956 L60,45.5121315 L59.9949649,45.5870935 C59.8220929,48.1208083 57.8164424,52.9100456 51.453747,52.9150431 L7.91854318,52.9916709 L7.88833254,53 L7.88833254,53 Z" id="Shape"></path>
          <path d="M7.71427438,14.8672435 C4.62822538,14.8672435 2.84679367,13.6628169 1.89316479,12.6332797 C-0.0885952116,10.5362575 -0.0174041672,7.78587525 0.00742991805,7.3701006 C-0.00581492742,6.5731992 0.118355499,4.17259557 1.87826434,2.30325956 C2.8269264,1.28527163 4.61332493,0.0692957746 7.71427438,0.0659959759 L46.1276375,0 L46.1491603,0 C49.2352093,0 51.0182967,1.20277666 51.9702699,2.23396378 C53.8642828,4.25179074 53.8808389,6.84708249 53.8576604,7.43609658 L53.8775277,12.6266801 L49.5398408,12.6481288 L49.5199735,7.32060362 L49.5249403,7.24305835 C49.5249403,7.24305835 49.5646749,5.96933602 48.7865402,5.14603622 C48.2550908,4.59496982 47.3676861,4.30953722 46.1524716,4.30953722 L46.1375711,4.30953722 L7.72420801,4.378833 C6.48581496,4.3804829 5.58847668,4.68736419 5.05702726,5.23843058 C4.30207106,6.03038229 4.3418056,7.28760563 4.3418056,7.30410463 L4.37491771,7.74462777 L4.3418056,7.84692153 C4.36663969,8.22474849 4.49246572,9.11569416 5.07523892,9.72120724 C5.60834395,10.2722736 6.49409299,10.5544064 7.71096317,10.5544064 L7.72751922,10.5544064 L7.73579725,14.8738431 C7.73083044,14.8672435 7.72255241,14.8672435 7.71427438,14.8672435 L7.71427438,14.8672435 Z M37.904244,41 C33.1236234,40.9918488 29.2484107,37.1351545 29.2338371,32.3710262 C29.2228671,30.0767991 30.133882,27.8736575 31.7636026,26.2531992 C33.3876095,24.6296899 35.5923433,23.7157008 37.8926548,23.7123541 L56.9602655,23.6859557 L56.9668879,28.0053924 L37.9009328,28.0350905 C36.7420088,28.0350905 35.6542759,28.487163 34.8364067,29.307163 C34.0211133,30.1165607 33.5649871,31.2175916 33.5698684,32.3644266 C33.5789665,34.7460607 35.5160174,36.673487 37.9058996,36.6789135 L37.9141777,36.6789135 L56.9933776,36.6442656 L57,40.9587525 L37.9224557,40.9934004 C37.9141777,41 37.9092109,41 37.904244,41 L37.904244,41 Z" id="Shape"></path>
          <circle id="Oval" cx="39" cy="32" r="2"></circle>
      </g>
  </g>
</g>
</svg>