<svg width="25px" height="28px" viewBox="0 0 30 33" version="1.1" xmlns="http://www.w3.org/2000/svg" xmlns:xlink="http://www.w3.org/1999/xlink">
    <title>icon-profile</title>
    <defs></defs>
    <g id="Symbols" stroke="none" stroke-width="1" fill="none" fill-rule="evenodd" stroke-linecap="round" stroke-linejoin="round">
        <g id="icon-profile" stroke="#231F20" stroke-width="2">
            <path d="M21.63391,15.0325367 C20.9226662,18.0505685 19.2282325,20.8898385 17.054565,21.9414904 L17.0754839,22.1849107 C17.1876855,23.5712656 17.969293,24.8187948 19.1711809,25.5205299 L26.8027886,28.0821486 C27.2953344,28.3693085 27.5977081,28.8979871 27.5977081,29.4685035 L27.5977081,31.3949472 C27.5977081,32.2811493 26.8788575,33 25.9926553,33 L21.86592,33 L16.8586877,33 L2.77453941,33 C1.78944775,33 0.992626508,32.201277 0.992626508,31.2161854 L0.992626508,29.546474 C0.992626508,28.9265129 1.31401742,28.3483896 1.84459767,28.025097 L9.03500608,25.5319403 C10.1874492,24.8283034 10.9386291,23.6188086 11.0584376,22.2723899 L11.0888651,21.9414904 C8.1906418,20.5399217 6.14438963,15.9605767 6.14438963,12.0145049 C6.14438963,6.81139534 7.98335418,1.90115083 14.0707642,1.90115083 C18.6367972,1.90115083 20.8142681,4.66245022 21.6167945,8.23958808" id="Page-1"></path>
        </g>
    </g>
</svg>