<?xml version="1.0" encoding="UTF-8"?>
<svg width="26px" height="35px" viewBox="0 0 26 35" version="1.1" xmlns="http://www.w3.org/2000/svg" xmlns:xlink="http://www.w3.org/1999/xlink">
    <!-- Generator: Sketch 46.2 (44496) - http://www.bohemiancoding.com/sketch -->
    <title>icon-password</title>
    <desc>Created with Sketch.</desc>
    <defs></defs>
    <g id="Page-1" stroke="none" stroke-width="1" fill="none" fill-rule="evenodd" stroke-linecap="round" stroke-linejoin="round">
        <g id="08-request-for-permision" transform="translate(-91.000000, -275.000000)" stroke="#00001F" stroke-width="2">
            <g id="icon-password" transform="translate(92.000000, 276.000000)">
                <path d="M10.1900437,12.2186349 L19.0328267,12.2186349 L19.0328267,7.52819584 C19.0328267,3.36944982 15.7381801,0 11.6762595,0 C7.61433897,0 4.31969243,3.36944982 4.31969243,7.52819584 L4.31969243,12.2186349 L4.29149863,12.2248173 L3.66720742,12.2248173 C1.64128174,12.2248173 0,13.9023294 0,15.9755199 L0,29.2492974 C0,31.3204272 1.64128174,33 3.66720742,33 L19.6289241,33 C21.6548498,33 23.2941176,31.3204272 23.2941176,29.2492974 L23.2941176,15.9755199 C23.2941176,15.1800412 23.0544704,14.4422657 22.6416326,13.8363829" id="Page-1"></path>
            </g>
        </g>
    </g>
</svg>