<?xml version="1.0" encoding="UTF-8"?>
<svg width="37px" height="35px" viewBox="0 0 37 35" version="1.1" xmlns="http://www.w3.org/2000/svg" xmlns:xlink="http://www.w3.org/1999/xlink">
    <!-- Generator: Sketch 46.2 (44496) - http://www.bohemiancoding.com/sketch -->
    <title>icon-sms</title>
    <desc>Created with Sketch.</desc>
    <defs></defs>
    <g id="Symbols" stroke="none" stroke-width="1" fill="none" fill-rule="evenodd">
        <g id="icon-sms" fill-rule="nonzero" fill="#179DFF">
            <g id="Group">
                <path d="M33.987,34.184 L26.075,34.184 C22.653,34.184 19.513,32.622 17.471,29.897 C17.259,29.612 16.613,28.607 16.948,27.543 C17.066,27.187 17.415,26.522 18.417,26.19 C18.4456354,26.1780808 18.4760466,26.1709849 18.507,26.169 L18.54,26.154 C23.811,24.689 27.491,19.842 27.491,14.358 C27.491,7.608 22.003,2.118 15.251,2.118 C8.499,2.118 3.009,7.61 3.009,14.358 C3.009,16.676 3.662,18.939 4.9,20.893 L5.095,21.201 C5.796,22.139 6.484,24.182 4.466,25.813 L4.411,25.855 C4.042,26.099 3.723,26.336 3.473,26.543 C3.702,26.574 4.006,26.605 4.422,26.605 L14.36,26.605 C14.7372611,26.5932692 15.0909952,26.7878379 15.2830937,27.1127405 C15.4751921,27.4376431 15.4751921,27.8413569 15.2830937,28.1662595 C15.0909952,28.4911621 14.7372611,28.6857308 14.36,28.674 L4.422,28.674 C2.762,28.674 1.758,28.343 1.264,27.637 C1.00950924,27.2753582 0.925849797,26.8205284 1.035,26.392 C1.139,25.788 1.822,25.09 3.22,24.163 C3.824,23.664 3.908,23.063 3.414,22.417 C3.393,22.396 3.384,22.376 3.219,22.117 L3.076,21.888 C1.67610024,19.6267301 0.933051878,17.0205209 0.93,14.361 C0.93,6.465 7.355,0.049 15.242,0.049 C23.132,0.049 29.554,6.478 29.554,14.361 C29.554,20.764 25.248,26.435 19.084,28.15 L19.022,28.168 C18.993,28.189 18.96,28.193 18.918,28.21 C18.939,28.314 19.041,28.524 19.132,28.65 C20.7664625,30.835953 23.3405903,32.1174517 26.07,32.104 L33.841,32.104 L33.787,32.064 C32.972,31.405 32.597,30.541 32.724,29.621 C32.798933,29.1347902 32.9918959,28.6743573 33.286,28.28 L33.395,28.099 C34.2778738,26.7104256 34.7455676,25.0984782 34.743,23.453 C34.7408143,20.3055913 33.0365612,17.4054919 30.288,15.872 C30.0470222,15.7421528 29.8684196,15.5208127 29.7924243,15.2578388 C29.716429,14.9948648 29.7494323,14.7123739 29.884,14.474 C30.155,13.995 30.822,13.797 31.293,14.076 C34.700901,15.972262 36.8139267,19.5660515 36.814,23.466 C36.814,25.25 36.374,26.997 35.529,28.569 L35.544,28.574 L35.132,29.258 C34.976,29.506 34.957,29.529 34.945,29.532 C34.807,29.708 34.564,30.033 35.071,30.451 C36.424,31.347 36.676,31.889 36.748,32.262 C36.8206533,32.633062 36.7378732,33.017682 36.519,33.326 C35.983,34.094 34.817,34.184 33.987,34.184 L33.987,34.184 Z" id="Shape"></path>
                <circle id="Oval" cx="9.969" cy="15.222" r="1.899"></circle>
                <circle id="Oval" cx="15.108" cy="15.222" r="1.899"></circle>
                <circle id="Oval" cx="20.246" cy="15.222" r="1.899"></circle>
            </g>
        </g>
    </g>
</svg>