<svg width="30px" height="36px" viewBox="0 0 30 36" version="1.1" xmlns="http://www.w3.org/2000/svg" xmlns:xlink="http://www.w3.org/1999/xlink">
<title>icon-api-charging</title>
<g id="Symbols" stroke="none" stroke-width="1" fill="none" fill-rule="evenodd">
    <g id="icon-api-charging" fill-rule="nonzero" fill="#179DFF">
        <path d="M26.026,35.171 L11.356,35.171 C9.2709298,35.1721102 7.57851431,33.4850632 7.573,31.4 L7.573,26.31 L3.061,26.31 C1.37387704,26.3039434 0.00909039107,24.9351335 0.008,23.248 L0.008,17.02 C0.00720317672,16.7544373 0.112070862,16.4994638 0.299477331,16.3113069 C0.486883799,16.1231501 0.741436236,16.0172644 1.007,16.017 L24.217,16.021 L24.279,16.017 C24.828,16.017 25.279,16.457 25.279,17.02 L25.279,23.249 C25.2762714,24.9350657 23.9130478,26.302756 22.227,26.311 L11.507,26.311 C10.9533425,26.2766499 10.5305282,25.8029909 10.559,25.249 C10.587,24.737 10.996,24.33 11.507,24.302 L22.229,24.302 C22.809,24.302 23.274,23.831 23.274,23.254 L23.274,18.029 L2.007,18.024 L2.007,23.253 C2.007,23.83 2.477,24.301 3.051,24.301 L8.565,24.301 C9.117,24.301 9.566,24.751 9.566,25.307 L9.566,31.4 C9.566,32.379 10.364,33.171 11.344,33.171 L26.014,33.171 C26.9927825,33.1699128 27.7870517,32.3787706 27.792,31.4 L27.792,3.787 C27.792,2.808 26.992,2.011 26.014,2.011 L11.344,2.011 C10.3653093,2.01699207 9.57309357,2.80831662 9.566,3.787 L9.566,7.611 L22.227,7.611 C23.9129916,7.61320572 25.2788984,8.98000727 25.28,10.666 L25.28,13.7 C25.28,14.253 24.831,14.702 24.28,14.702 L1,14.702 C0.45,14.702 0,14.253 0,13.7 L0,10.661 C0.00109785674,8.97617615 1.36518021,7.6098576 3.05,7.606 L5.868,7.606 C6.42166546,7.606 6.8705,8.05483454 6.8705,8.6085 C6.8705,9.16216546 6.42166546,9.611 5.868,9.611 L3.049,9.611 C2.471,9.611 2.006,10.084 2.006,10.661 L2.006,12.694 L23.281,12.694 L23.281,10.661 C23.281,10.084 22.809,9.611 22.233,9.611 L8.573,9.611 C8.30743662,9.61100053 8.05277915,9.50536919 7.86518517,9.31740003 C7.6775912,9.12943086 7.57246887,8.87456284 7.573,8.609 L7.573,3.782 C7.57410345,1.69371631 9.26671631,0.00110345264 11.355,0 L26.025,0 C28.1130553,0.00165434275 29.8053457,1.69394471 29.807,3.782 L29.807,31.39 C29.8042455,33.4770466 28.1130466,35.1682455 26.026,35.171 Z" id="Shape"></path>
    </g>
</g>
</svg>